<?xml version="1.0" encoding="UTF-8"?>
<!DOCTYPE svg PUBLIC "-//W3C//DTD SVG 1.1//EN" "http://www.w3.org/Graphics/SVG/1.1/DTD/svg11.dtd">
<svg xmlns="http://www.w3.org/2000/svg" version="1.1" width="317px" height="104px" style="shape-rendering:geometricPrecision; text-rendering:geometricPrecision; image-rendering:optimizeQuality; fill-rule:evenodd; clip-rule:evenodd" xmlns:xlink="http://www.w3.org/1999/xlink">
<g><path style="opacity:0.96" fill="#f1b423" d="M 9.5,24.5 C 18.5,24.5 27.5,24.5 36.5,24.5C 36.5,28.1667 36.5,31.8333 36.5,35.5C 31.1667,35.5 25.8333,35.5 20.5,35.5C 20.5,36.8333 20.5,38.1667 20.5,39.5C 25.8333,39.5 31.1667,39.5 36.5,39.5C 36.5,43.1667 36.5,46.8333 36.5,50.5C 32.4862,50.3345 28.4862,50.5012 24.5,51C 27.874,54.1868 31.874,56.0202 36.5,56.5C 36.5,60.1667 36.5,63.8333 36.5,67.5C 23.3747,67.2148 14.5414,60.8814 10,48.5C 9.50029,40.5069 9.33362,32.5069 9.5,24.5 Z"/></g>
<g><path style="opacity:0.924" fill="#f1b423" d="M 43.5,24.5 C 47.5,24.5 51.5,24.5 55.5,24.5C 56.683,30.5654 58.183,36.5654 60,42.5C 61.3455,36.7844 62.8455,31.1177 64.5,25.5C 68.4454,24.5091 72.4454,24.1758 76.5,24.5C 73.0086,38.7987 69.6753,53.1321 66.5,67.5C 62.1667,67.5 57.8333,67.5 53.5,67.5C 50.0086,53.2013 46.6753,38.8679 43.5,24.5 Z"/></g>
<g><path style="opacity:0.96" fill="#f1b423" d="M 77.5,24.5 C 86.5,24.5 95.5,24.5 104.5,24.5C 104.5,28.1667 104.5,31.8333 104.5,35.5C 99.1667,35.5 93.8333,35.5 88.5,35.5C 88.5,36.8333 88.5,38.1667 88.5,39.5C 93.8333,39.5 99.1667,39.5 104.5,39.5C 104.5,43.1667 104.5,46.8333 104.5,50.5C 100.486,50.3345 96.4862,50.5012 92.5,51C 95.874,54.1868 99.874,56.0202 104.5,56.5C 104.5,60.1667 104.5,63.8333 104.5,67.5C 91.3747,67.2148 82.5414,60.8814 78,48.5C 77.5003,40.5069 77.3336,32.5069 77.5,24.5 Z"/></g>
<g><path style="opacity:0.952" fill="#f1b423" d="M 111.5,24.5 C 127.665,22.6595 138.498,29.3262 144,44.5C 144.5,52.1594 144.666,59.8261 144.5,67.5C 140.833,67.5 137.167,67.5 133.5,67.5C 133.788,60.4369 133.288,53.4369 132,46.5C 130.363,42.3635 127.53,39.3635 123.5,37.5C 122.501,47.4778 122.168,57.4778 122.5,67.5C 118.833,67.5 115.167,67.5 111.5,67.5C 111.5,53.1667 111.5,38.8333 111.5,24.5 Z"/></g>
<g><path style="opacity:0.982" fill="#f1b423" d="M 156.5,24.5 C 160.167,24.5 163.833,24.5 167.5,24.5C 167.5,31.5 167.5,38.5 167.5,45.5C 170.833,45.5 174.167,45.5 177.5,45.5C 177.5,49.1667 177.5,52.8333 177.5,56.5C 174.167,56.5 170.833,56.5 167.5,56.5C 167.5,60.1667 167.5,63.8333 167.5,67.5C 163.833,67.5 160.167,67.5 156.5,67.5C 156.5,63.8333 156.5,60.1667 156.5,56.5C 152.833,56.5 149.167,56.5 145.5,56.5C 145.5,52.8333 145.5,49.1667 145.5,45.5C 149.167,45.5 152.833,45.5 156.5,45.5C 156.5,38.5 156.5,31.5 156.5,24.5 Z"/></g>
<g><path style="opacity:0.954" fill="#f1b423" d="M 194.5,24.5 C 198.167,24.5 201.833,24.5 205.5,24.5C 205.5,27.5 205.5,30.5 205.5,33.5C 223.346,37.8298 230.68,49.1631 227.5,67.5C 223.833,67.5 220.167,67.5 216.5,67.5C 216.622,62.7682 216.122,58.1016 215,53.5C 212.974,49.9738 210.141,47.3071 206.5,45.5C 205.503,52.8032 205.169,60.1365 205.5,67.5C 201.833,67.5 198.167,67.5 194.5,67.5C 194.5,53.1667 194.5,38.8333 194.5,24.5 Z"/></g>
<g><path style="opacity:0.953" fill="#f1b423" d="M 228.5,24.5 C 232.167,24.5 235.833,24.5 239.5,24.5C 239.168,34.5222 239.501,44.5222 240.5,54.5C 244.53,52.6365 247.363,49.6365 249,45.5C 250.288,38.5631 250.788,31.5631 250.5,24.5C 254.167,24.5 257.833,24.5 261.5,24.5C 261.666,32.1739 261.5,39.8406 261,47.5C 255.498,62.6738 244.665,69.3405 228.5,67.5C 228.5,53.1667 228.5,38.8333 228.5,24.5 Z"/></g>
<g><path style="opacity:0.961" fill="#f1b423" d="M 262.5,24.5 C 274.184,21.9948 284.017,24.9948 292,33.5C 295.663,39.5941 296.163,45.7608 293.5,52C 295.213,56.9874 295.879,62.1541 295.5,67.5C 284.5,67.5 273.5,67.5 262.5,67.5C 262.5,53.1667 262.5,38.8333 262.5,24.5 Z M 273.5,35.5 C 283.472,39.0357 283.472,40.7024 273.5,40.5C 273.5,38.8333 273.5,37.1667 273.5,35.5 Z M 273.5,51.5 C 277.775,50.7265 280.775,52.2265 282.5,56C 279.518,56.498 276.518,56.6646 273.5,56.5C 273.5,54.8333 273.5,53.1667 273.5,51.5 Z"/></g>
</svg>
